<?xml version="1.0" encoding="UTF-8" standalone="no"?>
<!-- Thanks to joypixels: https://github.com/joypixels/emojione for the starting icon-->

<svg
   width="542"
   height="82"
   viewBox="0 0 43.36 6.5599999"
   aria-hidden="true"
   role="img"
   class="iconify iconify--emojione"
   preserveAspectRatio="xMidYMid"
   version="1.1"
   id="svg2"
   sodipodi:docname="LogoPersonalCloud.svg"
   inkscape:version="1.4 (86a8ad7, 2024-10-11)"
   xml:space="preserve"
   xmlns:inkscape="http://www.inkscape.org/namespaces/inkscape"
   xmlns:sodipodi="http://sodipodi.sourceforge.net/DTD/sodipodi-0.dtd"
   xmlns:xlink="http://www.w3.org/1999/xlink"
   xmlns="http://www.w3.org/2000/svg"
   xmlns:svg="http://www.w3.org/2000/svg"><defs
     id="defs2"><linearGradient
       id="linearGradient3"
       inkscape:swatch="gradient"><stop
         style="stop-color:#000000;stop-opacity:1;"
         offset="0"
         id="stop3" /><stop
         style="stop-color:#000000;stop-opacity:0;"
         offset="1"
         id="stop4" /></linearGradient><linearGradient
       id="swatch60"><stop
         style="stop-color:#6688bb;stop-opacity:1;"
         offset="0"
         id="stop61" /><stop
         style="stop-color:#334466;stop-opacity:1;"
         offset="0.75"
         id="stop64" /><stop
         style="stop-color:#222222;stop-opacity:1;"
         offset="1"
         id="stop62" /></linearGradient><linearGradient
       id="swatch31"
       inkscape:swatch="solid"><stop
         style="stop-color:#c32c29;stop-opacity:1;"
         offset="0"
         id="stop31" /></linearGradient><clipPath
       clipPathUnits="userSpaceOnUse"
       id="clipPath52"><path
         id="path52"
         style="stroke-width:0.1;stroke-linecap:square;paint-order:markers fill stroke;stop-color:#000000"
         d="m -880.82767,-187.29769 h 1640.84 v 73.28155 h -1640.84 z" /></clipPath><linearGradient
       inkscape:collect="always"
       xlink:href="#linearGradient1"
       id="linearGradient2"
       x1="18.002703"
       y1="47.397614"
       x2="48.177074"
       y2="47.397614"
       gradientUnits="userSpaceOnUse"
       gradientTransform="matrix(1.1127164,0,0,1.1127164,-10.442848,-49.324152)"
       spreadMethod="reflect" /><linearGradient
       id="linearGradient1"
       inkscape:collect="always"><stop
         style="stop-color:#3899da;stop-opacity:1;"
         offset="0.33888048"
         id="stop1" /><stop
         style="stop-color:#78add1;stop-opacity:1;"
         offset="0.66944027"
         id="stop5" /><stop
         style="stop-color:#b9c2c8;stop-opacity:1;"
         offset="1"
         id="stop2" /></linearGradient><linearGradient
       inkscape:collect="always"
       xlink:href="#linearGradient3"
       id="linearGradient5"
       gradientUnits="userSpaceOnUse"
       x1="-2.0857799"
       y1="1.2491252"
       x2="32.260136"
       y2="1.2491252" /><linearGradient
       id="linearGradient49"
       inkscape:collect="always"
       inkscape:label="35"><stop
         style="stop-color:#3498db;stop-opacity:1;"
         offset="0"
         id="stop48" /><stop
         style="stop-color:#bdc3c7;stop-opacity:1;"
         offset="1"
         id="stop50" /></linearGradient><clipPath
       clipPathUnits="userSpaceOnUse"
       id="clipPath52-4"><path
         id="path52-5"
         style="stroke-width:0.1;stroke-linecap:square;paint-order:markers fill stroke;stop-color:#000000"
         d="m -880.82767,-187.29769 h 1640.84 v 73.28155 h -1640.84 z" /></clipPath><linearGradient
       inkscape:collect="always"
       xlink:href="#linearGradient49"
       id="linearGradient43"
       x1="2"
       y1="32"
       x2="62"
       y2="32"
       gradientUnits="userSpaceOnUse"
       spreadMethod="pad" /></defs><sodipodi:namedview
     id="namedview2"
     pagecolor="#505050"
     bordercolor="#eeeeee"
     borderopacity="1"
     inkscape:showpageshadow="0"
     inkscape:pageopacity="0"
     inkscape:pagecheckerboard="0"
     inkscape:deskcolor="#505050"
     inkscape:zoom="1.4265879"
     inkscape:cx="205.73565"
     inkscape:cy="-81.663385"
     inkscape:window-width="1920"
     inkscape:window-height="1009"
     inkscape:window-x="-8"
     inkscape:window-y="-8"
     inkscape:window-maximized="1"
     inkscape:current-layer="svg2" /><text
     xml:space="preserve"
     style="font-style:italic;font-variant:normal;font-weight:bold;font-stretch:normal;font-size:4.28054px;font-family:'Courier New';-inkscape-font-specification:'Courier New, Bold Italic';font-variant-ligatures:normal;font-variant-caps:normal;font-variant-numeric:normal;font-variant-east-asian:normal;text-align:start;letter-spacing:0px;writing-mode:lr-tb;direction:ltr;text-anchor:start;display:inline;mix-blend-mode:normal;fill:url(#linearGradient2);fill-opacity:1;stroke:#000000;stroke-width:0.0890173;stroke-dasharray:none;stroke-dashoffset:0;stroke-opacity:1"
     x="9.4949894"
     y="4.7368932"
     id="text2"><tspan
       style="font-style:italic;font-variant:normal;font-weight:bold;font-stretch:normal;font-size:4.28054px;font-family:'Courier New';-inkscape-font-specification:'Courier New, Normal';font-variant-ligatures:normal;font-variant-caps:normal;font-variant-numeric:normal;font-variant-east-asian:normal;letter-spacing:0px;fill:url(#linearGradient2);fill-opacity:1;stroke:#000000;stroke-width:0.0890173;stroke-dasharray:none;stroke-dashoffset:0;stroke-opacity:1"
       x="9.4949894"
       y="4.7368932"
       sodipodi:role="line"
       id="tspan1">PersonalCloud</tspan></text><g
     id="g5"
     transform="matrix(0.15263059,0,0,0.15263059,-0.24918332,-1.6115916)"><path
       d="m 50,51 c 1.1,0 2.1,-0.2 3.1,-0.5 C 57.2,49.1 60,45.3 60,41 60,38.1 58.8,35.4 56.6,33.5 56,33 55.4,32.6 54.7,32.2 L 54,29.9 c -1.7,-5.8 -7,-9.8 -13,-9.8 -0.6,0 -1.2,0 -1.9,0.2 -0.6,0.1 -1.1,0.2 -1.6,0.3 l -0.3,-0.5 c -2.4,-4.4 -7,-7.1 -12,-7.1 -7.6,0 -13.7,6.2 -13.7,13.7 0,0.4 0,0.7 0.1,1.1 v 0.3 C 11,28.3 10.4,28.6 9.9,28.9 6.2,31 4,34.9 4,39.2 4,44.7 7.8,49.5 13.2,50.7 14.1,50.9 15,51 15.8,51 H 50"
       fill="#ffffff"
       id="path1"
       style="display:inline;fill:#f4f4f4;fill-opacity:1" /><path
       d="m 25.3,15 c -6.5,0 -11.7,5.3 -11.7,11.7 v 0.9 c 2.7,0.2 5.2,1.3 7.1,3 -1.4,-0.8 -3.1,-1.3 -4.9,-1.3 -0.7,0 -1.3,0.1 -1.9,0.2 -1.1,0.2 -2.1,0.6 -3,1.1 C 8,32.3 6,35.5 6,39.1 c 0,4.7 3.3,8.6 7.6,9.6 0.7,0.2 1.4,0.3 2.2,0.3 H 50 c 0.9,0 1.7,-0.1 2.5,-0.4 C 55.7,47.5 58,44.5 58,41 58,38.6 56.9,36.4 55.3,35 54.5,34.3 53.7,33.8 52.7,33.5 51.9,33.2 51,33 50.1,33 c -2.6,0 -4.9,1.2 -6.3,3.1 H 43.7 C 45.4,33 48.6,30.8 52.3,30.4 50.9,25.6 46.5,22 41.2,22 c -0.6,0 -1.1,0.1 -1.6,0.1 -1.1,0.2 -2.1,0.4 -3,0.9 -3.5,1.6 -6.1,4.9 -6.7,8.9 v -0.1 c 0,-4.5 2.3,-8.5 5.8,-10.8 -2.2,-3.6 -6,-6 -10.4,-6 m 0,-4 c 5.4,0 10.4,2.8 13.3,7.3 0.1,0 0.2,0 0.3,-0.1 0.8,-0.1 1.5,-0.2 2.2,-0.2 6.9,0 13,4.6 14.9,11.3 l 0.5,1.6 c 0.5,0.3 1,0.7 1.4,1.1 2.6,2.2 4.1,5.5 4.1,9 0,5.2 -3.3,9.8 -8.2,11.4 C 52.6,52.8 51.3,53 50,53 H 15.8 c -1,0 -2.1,-0.1 -3.1,-0.4 C 6.4,51.1 2,45.6 2,39.1 2,34.2 4.7,29.6 8.9,27.1 L 9.5,26.8 V 26.7 C 9.6,18.1 16.6,11 25.3,11 Z"
       fill="#75d6ff"
       id="path2"
       style="fill:url(#linearGradient43)" /><path
       d="m 25.564348,11.004547 c 5.4,0 10.4,2.8 13.3,7.3 0.1,0 0.2,0 0.3,-0.1 0.8,-0.1 1.5,-0.2 2.2,-0.2 6.9,0 13,4.6 14.9,11.3 l 0.5,1.6 c 0.5,0.3 1,0.7 1.4,1.1 2.6,2.2 4.1,5.5 4.1,9 0,5.2 -3.3,9.8 -8.2,11.4 -1.2,0.4 -2.5,0.6 -3.8,0.6 H 16.064345 c -1,0 -2.100001,-0.1 -3.100001,-0.4 -6.3000007,-1.5 -10.7000007,-7 -10.7000007,-13.5 0,-4.9 2.7,-9.5 6.9,-12 l 0.6,-0.3 v -0.1 c 0.1,-8.6 7.1000027,-15.7 15.8000047,-15.7 z"
       fill="#75d6ff"
       id="path2-1"
       style="mix-blend-mode:normal;fill:#f4f4f4;fill-opacity:0;fill-rule:evenodd;stroke:#000000;stroke-width:0.524141;stroke-dasharray:none;stroke-opacity:1"
       sodipodi:nodetypes="sccscccscsscscccs" /></g></svg>
